<?xml version="1.0" standalone="no"?>
<!DOCTYPE svg PUBLIC "-//W3C//DTD SVG 20010904//EN"
 "http://www.w3.org/TR/2001/REC-SVG-20010904/DTD/svg10.dtd">
<svg version="1.0" xmlns="http://www.w3.org/2000/svg"
 width="3464.000000pt" height="3464.000000pt" viewBox="0 0 3464.000000 3464.000000"
 preserveAspectRatio="xMidYMid meet">
<metadata>
Created by potrace 1.14, written by Peter Selinger 2001-2017
</metadata>
<g transform="translate(0.000000,3464.000000) scale(0.100000,-0.100000)"
fill="#000000" stroke="none">
<path d="M11206 23720 c-44 -13 -66 -39 -102 -115 -57 -123 -81 -238 -159
-765 -30 -201 -80 -504 -110 -675 -123 -688 -349 -1818 -359 -1795 -3 8 -110
323 -237 700 -282 835 -384 1113 -563 1523 -103 234 -152 315 -250 410 -102
100 -197 135 -381 144 -138 6 -226 -10 -283 -53 -47 -37 -56 -66 -43 -142 34
-189 351 -1151 1001 -3042 108 -316 238 -702 289 -856 l91 -281 -71 -229
c-205 -670 -332 -995 -669 -1714 -314 -671 -517 -1119 -576 -1270 -59 -154
-41 -232 85 -359 181 -183 427 -275 568 -212 80 37 199 221 306 476 64 151
132 307 337 765 161 358 302 690 405 948 43 106 79 192 80 190 1 -2 89 -264
195 -583 278 -837 361 -1062 543 -1472 93 -208 135 -281 199 -338 93 -85 194
-106 473 -100 214 4 297 28 353 100 49 61 36 186 -34 338 -181 394 -431 1012
-626 1552 -182 503 -648 1870 -648 1902 0 9 25 114 55 232 113 448 175 750
285 1386 126 727 279 1571 350 1925 91 455 104 562 105 835 l0 220 -29 60
c-39 81 -151 192 -235 234 -115 58 -265 85 -345 61z"/>
<path d="M23505 23709 c-238 -19 -452 -66 -638 -140 -199 -80 -336 -168 -478
-309 -254 -251 -359 -514 -359 -900 1 -383 87 -671 337 -1119 215 -383 497
-773 1033 -1426 504 -614 811 -1066 1044 -1539 207 -422 286 -731 286 -1128 0
-574 -205 -1059 -545 -1288 -96 -65 -159 -95 -262 -127 -81 -24 -102 -27 -268
-27 -216 -1 -291 13 -428 82 -158 79 -284 225 -356 412 -54 140 -64 209 -70
525 l-6 290 -30 59 c-73 145 -285 287 -492 331 -185 40 -281 -4 -355 -161 -86
-184 -103 -612 -37 -939 46 -226 157 -477 290 -656 86 -115 120 -150 229 -243
338 -287 762 -436 1242 -436 339 0 574 50 847 181 256 123 472 290 655 509
245 292 418 715 466 1140 25 224 8 579 -39 825 -59 307 -203 700 -378 1035
-250 478 -508 841 -1258 1770 -518 642 -730 948 -891 1285 -110 230 -158 401
-170 601 -17 287 84 501 297 627 146 86 403 129 644 108 143 -13 216 -30 310
-75 248 -118 354 -326 425 -839 39 -279 87 -362 272 -477 110 -67 196 -93 293
-88 66 3 77 7 105 33 99 94 141 310 121 620 -6 91 -20 214 -32 273 -91 477
-343 827 -739 1027 -131 66 -214 95 -371 134 -201 48 -473 68 -694 50z"/>
<path d="M15532 23565 c-30 -7 -66 -21 -80 -32 -50 -37 -54 -54 -48 -228 6
-176 27 -324 80 -575 83 -395 132 -755 186 -1360 33 -378 105 -1528 96 -1537
-5 -6 -257 -52 -421 -77 -249 -39 -528 -72 -925 -111 -201 -19 -409 -39 -463
-45 -54 -5 -113 -10 -131 -10 l-33 0 -6 158 c-4 86 -11 528 -17 982 -20 1618
-31 1932 -75 2085 -53 186 -175 301 -362 340 -70 15 -217 20 -272 9 -39 -8
-78 -47 -105 -104 l-21 -45 -3 -1794 -2 -1794 -69 -72 c-76 -80 -117 -155
-130 -234 -12 -75 1 -130 38 -163 27 -24 113 -58 148 -58 11 0 13 -177 13
-987 0 -1253 17 -2015 51 -2293 12 -104 40 -155 112 -209 132 -99 316 -160
538 -176 181 -14 278 51 295 197 7 64 -9 402 -36 748 -34 436 -103 2713 -82
2731 4 3 120 11 259 18 428 20 941 69 1528 145 104 14 192 23 195 20 3 -3 7
-740 10 -1637 l5 -1632 23 -66 c44 -132 154 -240 304 -300 126 -50 383 -75
483 -48 59 16 110 73 131 144 16 56 17 127 11 1030 -6 926 -14 1352 -37 1895
-14 332 -29 645 -34 700 l-5 46 85 21 c166 43 301 120 353 202 52 81 66 142
66 281 0 109 -3 131 -23 175 -28 61 -55 90 -107 118 -35 19 -55 22 -150 21
-73 -1 -136 -8 -187 -21 l-77 -20 -5 41 c-3 23 -14 156 -26 296 -80 967 -211
2036 -310 2530 -64 320 -111 459 -181 535 -123 133 -394 207 -587 160z"/>
<path d="M18717 23279 c-399 -33 -639 -162 -756 -406 -109 -225 -144 -573
-123 -1214 31 -975 85 -2428 117 -3129 19 -432 39 -911 45 -1065 48 -1286 112
-1581 406 -1866 188 -181 428 -293 724 -336 106 -15 143 -16 366 -5 147 7 290
20 349 31 336 63 631 178 995 390 170 99 583 363 665 425 115 87 225 196 264
260 86 143 29 357 -139 526 -109 109 -230 157 -328 131 -46 -13 -147 -90 -283
-217 -445 -415 -1037 -748 -1450 -814 -114 -18 -331 -9 -389 17 -53 24 -125
98 -150 156 -59 135 -115 655 -170 1582 -15 252 -69 1360 -66 1362 3 3 333 16
841 33 517 18 612 29 742 91 77 37 123 89 163 185 51 122 61 318 23 416 -19
49 -73 95 -120 104 -60 11 -264 -3 -493 -35 -373 -52 -1177 -137 -1188 -126
-3 2 -8 87 -13 187 -5 101 -20 410 -34 688 -14 278 -29 620 -35 760 -13 333
-13 977 0 1060 9 52 35 153 43 162 1 1 416 5 922 8 881 6 924 8 1015 27 318
70 464 194 477 408 8 129 -9 151 -142 185 -77 20 -115 20 -1130 24 -577 2
-1094 0 -1148 -5z"/>
<path d="M17394 11956 c-46 -20 -65 -50 -184 -286 -133 -265 -202 -419 -326
-733 -281 -710 -374 -1027 -428 -1462 -7 -57 7 -93 41 -106 38 -14 60 17 92
129 65 228 368 725 675 1108 254 317 371 401 466 334 80 -57 40 -171 -187
-540 -211 -342 -299 -552 -310 -734 -9 -153 32 -261 112 -292 166 -63 454 120
765 488 40 49 75 87 76 85 2 -2 -6 -45 -16 -97 -39 -191 -15 -343 69 -433 54
-58 106 -69 197 -42 100 30 291 169 398 289 59 66 214 258 249 309 15 21 16
19 17 -38 3 -226 94 -434 224 -515 173 -106 386 -75 601 89 157 120 325 332
434 547 98 193 141 333 156 504 3 41 7 75 8 75 1 1 47 12 102 24 55 13 124 32
154 42 30 11 56 18 57 16 2 -2 -48 -149 -112 -328 -63 -178 -133 -385 -155
-459 -48 -164 -99 -404 -99 -468 0 -53 21 -92 49 -92 38 0 59 35 96 155 67
219 274 572 553 944 299 398 450 534 541 487 32 -17 41 -34 41 -77 0 -68 -81
-251 -222 -499 -221 -389 -296 -594 -283 -779 21 -325 257 -320 638 13 129
114 355 380 491 579 54 80 63 107 46 147 -24 59 -73 30 -139 -82 -64 -106
-286 -400 -377 -497 -81 -86 -173 -164 -259 -218 -59 -37 -197 -86 -219 -77
-52 20 -15 144 94 319 21 33 60 101 87 150 28 50 76 131 107 180 166 260 269
551 253 712 -10 98 -74 199 -150 239 -41 22 -118 28 -163 14 -73 -24 -179
-102 -290 -214 -123 -124 -199 -223 -358 -466 -122 -187 -135 -203 -108 -140
27 62 178 381 246 519 64 130 71 176 34 231 -27 39 -81 70 -123 70 -17 0 -47
-11 -66 -24 -39 -27 -61 -65 -80 -139 -11 -44 -16 -51 -58 -69 -118 -52 -333
-114 -352 -102 -5 3 -9 11 -9 19 0 33 -44 129 -80 174 -124 157 -442 181 -685
53 -212 -112 -424 -357 -529 -611 -84 -203 -254 -446 -486 -692 -117 -125
-194 -184 -272 -206 -44 -13 -51 -13 -75 2 -25 17 -26 20 -20 94 10 137 74
320 259 739 50 114 131 291 179 394 105 221 109 241 50 299 -36 37 -42 39 -99
39 -106 0 -120 -21 -296 -445 -117 -282 -152 -343 -339 -595 -212 -284 -410
-466 -568 -519 -108 -36 -133 -25 -118 54 18 96 90 237 267 525 178 289 265
503 279 686 7 92 -8 150 -57 227 -63 100 -195 132 -306 75 -114 -60 -279 -213
-400 -373 -33 -44 -129 -181 -212 -305 -83 -124 -161 -236 -172 -250 -24 -30
70 201 201 495 51 116 203 430 337 698 218 435 244 492 239 523 -16 96 -106
147 -193 110z m2856 -1028 c53 -28 77 -71 82 -150 l4 -58 -31 0 c-47 0 -131
28 -160 53 -30 26 -45 79 -34 122 16 59 65 70 139 33z m-231 -177 c36 -69 125
-119 244 -136 34 -5 47 -12 47 -24 0 -21 -77 -242 -124 -354 -56 -135 -173
-364 -226 -442 -97 -142 -202 -245 -299 -292 -78 -38 -189 -43 -251 -11 -61
32 -81 70 -87 171 -15 237 161 686 387 985 67 89 149 169 225 217 l50 33 7
-54 c4 -29 16 -71 27 -93z"/>
<path d="M13610 11803 c-86 -13 -215 -88 -299 -174 -111 -112 -188 -228 -320
-484 -46 -88 -116 -223 -157 -300 -210 -404 -433 -970 -535 -1360 -42 -160
-42 -160 -43 -350 -1 -150 3 -203 16 -252 63 -229 210 -328 369 -251 65 33
182 144 266 254 217 286 456 815 543 1205 26 115 44 307 37 396 l-5 73 68 0
c81 0 252 42 385 94 49 20 91 36 93 36 2 0 -5 -12 -16 -27 -95 -136 -205 -395
-248 -586 -25 -108 -15 -286 21 -396 48 -140 138 -259 234 -304 68 -31 160
-29 226 5 116 61 255 211 362 389 l32 54 1 -72 c0 -138 71 -306 153 -367 88
-65 255 28 429 241 l60 74 38 -78 c70 -142 198 -238 356 -265 93 -15 189 1
284 48 193 97 324 370 291 606 -21 154 -74 241 -211 350 -101 80 -178 160
-196 205 -19 45 -19 159 1 213 22 63 71 135 118 176 85 72 206 109 280 85 65
-22 127 -113 127 -186 -1 -33 -37 -102 -63 -120 -14 -9 -52 -18 -85 -20 -75
-5 -99 -17 -107 -53 -8 -37 7 -74 41 -101 34 -27 68 -27 141 0 76 28 162 114
186 184 19 55 22 152 7 207 -28 98 -130 173 -252 185 -144 13 -266 -36 -383
-153 -78 -77 -142 -190 -166 -294 -16 -65 -16 -200 -2 -251 l11 -37 -48 -6
c-98 -13 -265 -159 -327 -287 -34 -69 -63 -172 -63 -227 0 -25 -19 -58 -83
-145 -131 -175 -251 -275 -320 -265 -21 3 -22 7 -21 98 0 112 20 197 104 445
90 267 209 533 342 764 33 57 63 120 65 141 7 49 -27 114 -70 136 -41 22 -107
21 -141 -1 -23 -15 -95 -124 -138 -208 l-15 -29 -17 49 c-32 84 -66 133 -114
164 -62 39 -112 52 -199 51 -129 -2 -252 -41 -378 -121 -177 -112 -288 -165
-455 -219 -146 -47 -168 -52 -266 -59 l-90 -5 -13 43 c-20 66 -52 118 -87 139
-45 28 -80 25 -115 -9 -24 -24 -29 -38 -29 -76 0 -57 22 -107 63 -141 29 -24
30 -26 23 -90 -41 -396 -233 -1035 -423 -1407 -72 -141 -181 -305 -241 -366
-78 -78 -128 -83 -176 -18 -46 63 -19 277 76 597 43 145 191 558 278 775 330
827 704 1423 896 1428 52 1 67 -23 60 -94 -9 -96 -42 -167 -111 -239 -103
-107 -135 -156 -135 -202 0 -88 95 -127 180 -73 101 64 167 213 177 401 15
293 -101 485 -277 457z m1208 -881 c44 -32 73 -98 79 -184 5 -73 5 -74 -72
-268 -99 -252 -276 -610 -357 -725 -81 -114 -200 -235 -261 -264 -98 -47 -151
-27 -200 77 -51 109 -49 251 5 422 52 165 278 572 413 745 80 102 125 145 200
190 53 32 66 36 111 33 31 -3 63 -13 82 -26z m1150 -865 c97 -100 126 -164
127 -272 0 -68 -5 -89 -29 -139 -37 -75 -93 -131 -165 -164 -120 -56 -232 -37
-332 55 -75 70 -101 130 -107 245 -4 80 -2 92 25 150 38 80 74 115 176 169 44
24 95 58 111 76 l30 31 46 -38 c25 -21 78 -72 118 -113z"/>
<path d="M18859 11776 c-46 -31 -69 -80 -69 -144 0 -87 62 -153 152 -159 94
-7 167 54 176 146 10 105 -61 181 -170 181 -40 0 -62 -6 -89 -24z"/>
</g>
</svg>
